# xmcd
#
# Track frame offsets: 
#        14811
#        41559
#        60529
#        74754
#        90882
#        110382
#        127343
#        143240
#        163025
#        183962
#
# Disc length: 2673 seconds
#
# Revision: 0
# Processed by: cddbd v1.4PL0 Copyright (c) Steve Scherf et al.
# Submitted via: ExactAudioCopy v0.90b4
#
DISCID=9c09ac0a
DTITLE=Mary Taylor - Victim Of Love
DYEAR=2000
DGENRE=Soul Blues
TTITLE0=Mama's First Rule
TTITLE1=Better Watch Your Step
TTITLE2=Back To You
TTITLE3=Our Eyes Will Be Cryin'
TTITLE4=Love Me Or Leave Me
TTITLE5=Not My Kind Of Man
TTITLE6=Nobody Wins
TTITLE7=Victim Of Love
TTITLE8=Things Will Be Allright
TTITLE9=You're The One
EXTD=
EXTT0=
EXTT1=
EXTT2=
EXTT3=
EXTT4=
EXTT5=
EXTT6=
EXTT7=
EXTT8=
EXTT9=
PLAYORDER=
